%FSLAX46Y46*%
%MOMM*%
%AMPS11*
1,1,3.000000,0.000000,0.000000*
%
%ADD11PS11*%
%AMPS13*
1,1,1.100000,0.000000,0.000000*
%
%ADD13PS13*%
%AMPS14*
1,1,1.800000,0.000000,0.000000*
%
%ADD14PS14*%
%AMPS15*
1,1,1.800000,0.000000,0.000000*
%
%ADD15PS15*%
%AMPS16*
1,1,3.200000,0.000000,0.000000*
%
%ADD16PS16*%
%AMPS10*
1,1,3.200000,0.000000,0.000000*
%
%ADD10PS10*%
%AMPS12*
21,1,3.000000,3.000000,0.000000,0.000000,180.000000*
%
%ADD12PS12*%
G01*
%LPD*%
G36*
X51000000Y0D02*
X34000000Y0D01*
X34000000Y30000000D01*
X51000000Y30000000D01*
X51000000Y0D01*
D02*
G37*
%LPD*%
G36*
X72000000Y0D02*
X55000000Y0D01*
X55000000Y30000000D01*
X72000000Y30000000D01*
X72000000Y0D01*
D02*
G37*
%LPD*%
G36*
X34000000Y27000000D02*
X28000000Y27000000D01*
X28000000Y30000000D01*
X34000000Y30000000D01*
X34000000Y27000000D01*
D02*
G37*
G01*
%LPD*%
G75*
D10*
X90359375Y42121853D03*
D11*
X92459375Y34821853D03*
D12*
X88259375Y34821853D03*
D13*
X12900000Y5950000D03*
D13*
X9150000Y5950000D03*
D13*
X10400000Y5950000D03*
D13*
X11650000Y5950000D03*
D13*
X7900000Y5950000D03*
D13*
X14150000Y5950000D03*
D14*
X26500000Y38500000D03*
D15*
X26500000Y41500000D03*
D16*
X30350000Y45820000D03*
D15*
X32500000Y41500000D03*
D14*
X23500000Y38500000D03*
D15*
X29500000Y41500000D03*
D15*
X23500000Y41500000D03*
D14*
X29500000Y38500000D03*
D14*
X32500000Y38500000D03*
D16*
X25650000Y45820000D03*
D13*
X97900000Y5950000D03*
D13*
X94150000Y5950000D03*
D13*
X95400000Y5950000D03*
D13*
X96650000Y5950000D03*
D13*
X92900000Y5950000D03*
D13*
X99150000Y5950000D03*
D10*
X80359375Y41871853D03*
D11*
X82459375Y34571853D03*
D12*
X78259375Y34571853D03*
M02*
