M48
FMAT,2
METRIC,TZ
T3C0.700
T4C1.020
T2C1.800
T1C3.000
%
G90
G05
M71
T3
X12.900Y5.950
X9.150Y5.950
X10.400Y5.950
X11.650Y5.950
X7.900Y5.950
X14.150Y5.950
X97.900Y5.950
X94.150Y5.950
X95.400Y5.950
X96.650Y5.950
X92.900Y5.950
X99.150Y5.950
T4
X26.500Y38.500
X26.500Y41.500
X32.500Y41.500
X23.500Y38.500
X29.500Y41.500
X23.500Y41.500
X29.500Y38.500
X32.500Y38.500
T2
X92.459Y34.822
X88.259Y34.822
X82.459Y34.572
X78.259Y34.572
T1
X90.359Y42.122
X30.350Y45.820
X25.650Y45.820
X80.359Y41.872
M30
